{
  "accessors": [
    {
      "bufferView": 2,
      "componentType": 5126,
      "count": 1974,
      "max": [
        21.42999267578125,
        9.519769668579102,
        5.657227039337158
      ],
      "min": [
        -9.608359336853027,
        -7.782261848449707,
        -5.657227039337158
      ],
      "type": "VEC3"
    },
    {
      "bufferView": 2,
      "byteOffset": 23688,
      "componentType": 5126,
      "count": 1974,
      "max": [
        1.0,
        1.0,
        1.0
      ],
      "min": [
        -1.0,
        -1.0,
        -1.0
      ],
      "type": "VEC3"
    },
    {
      "bufferView": 1,
      "componentType": 5126,
      "count": 1974,
      "max": [
        0.989031195640564,
        0.5293636322021484
      ],
      "min": [
        0.003906233236193657,
        0.00390625
      ],
      "type": "VEC2"
    },
    {
      "bufferView": 0,
      "componentType": 5125,
      "count": 7584,
      "type": "SCALAR"
    },
    {
      "bufferView": 2,
      "byteOffset": 47376,
      "componentType": 5126,
      "count": 108,
      "max": [
        0.030034929513931274,
        -0.00885013397783041,
        -0.026263538748025894
      ],
      "min": [
        -0.6396151781082153,
        -0.2786903977394104,
        -0.8430441617965698
      ],
      "type": "VEC3"
    },
    {
      "bufferView": 2,
      "byteOffset": 48672,
      "componentType": 5126,
      "count": 108,
      "max": [
        0.995579719543457,
        0.9502390027046204,
        0.9502324461936951
      ],
      "min": [
        -0.9999339580535889,
        -0.9502389430999756,
        -0.9361771941184998
      ],
      "type": "VEC3"
    },
    {
      "bufferView": 1,
      "byteOffset": 15792,
      "componentType": 5126,
      "count": 108,
      "max": [
        0.9940956830978394,
        0.9960939288139343
      ],
      "min": [
        0.0039060115814208984,
        0.003925408236682415
      ],
      "type": "VEC2"
    },
    {
      "bufferView": 0,
      "byteOffset": 30336,
      "componentType": 5125,
      "count": 276,
      "type": "SCALAR"
    },
    {
      "bufferView": 2,
      "byteOffset": 49968,
      "componentType": 5126,
      "count": 108,
      "max": [
        0.2940619885921478,
        0.0024404125288128853,
        0.5000000596046448
      ],
      "min": [
        -0.37558814883232117,
        -8.475035429000854e-08,
        -0.35875290632247925
      ],
      "type": "VEC3"
    },
    {
      "bufferView": 2,
      "byteOffset": 51264,
      "componentType": 5126,
      "count": 108,
      "max": [
        0.9955794215202332,
        1.0,
        1.0
      ],
      "min": [
        -0.9999339580535889,
        -1.0,
        -0.9852122068405151
      ],
      "type": "VEC3"
    },
    {
      "bufferView": 1,
      "byteOffset": 16656,
      "componentType": 5126,
      "count": 108,
      "max": [
        0.9960101246833801,
        0.8823217749595642
      ],
      "min": [
        0.3134681284427643,
        0.003932391759008169
      ],
      "type": "VEC2"
    },
    {
      "bufferView": 0,
      "byteOffset": 31440,
      "componentType": 5125,
      "count": 276,
      "type": "SCALAR"
    },
    {
      "bufferView": 3,
      "componentType": 5126,
      "count": 129,
      "max": [
        4.166666507720947
      ],
      "min": [
        0.0416666679084301
      ],
      "type": "SCALAR"
    },
    {
      "bufferView": 5,
      "componentType": 5126,
      "count": 129,
      "max": [
        0.7608364820480347,
        -1.2149661924403373e-17,
        -2.3443086035695955e-17,
        0.9417467713356018
      ],
      "min": [
        0.3363228440284729,
        -2.7485216595499632e-17,
        -3.402059856171369e-17,
        0.6489436030387878
      ],
      "type": "VEC4"
    },
    {
      "bufferView": 3,
      "byteOffset": 516,
      "componentType": 5126,
      "count": 89,
      "max": [
        4.166666507720947
      ],
      "min": [
        0.0416666679084301
      ],
      "type": "SCALAR"
    },
    {
      "bufferView": 4,
      "componentType": 5126,
      "count": 89,
      "max": [
        3.552713678800501e-15,
        3.8069839477539063,
        0.0
      ],
      "min": [
        -3.552713678800501e-15,
        3.8069839477539063,
        0.0
      ],
      "type": "VEC3"
    },
    {
      "bufferView": 3,
      "byteOffset": 872,
      "componentType": 5126,
      "count": 129,
      "max": [
        4.166666507720947
      ],
      "min": [
        0.0416666679084301
      ],
      "type": "SCALAR"
    },
    {
      "bufferView": 5,
      "byteOffset": 2064,
      "componentType": 5126,
      "count": 129,
      "max": [
        0.9796558618545532,
        -2.748511898818735e-17,
        -7.249735143214855e-18,
        0.6489467620849609
      ],
      "min": [
        0.7608337998390198,
        -3.5390065548966684e-17,
        -2.3443198532259262e-17,
        0.20068474113941193
      ],
      "type": "VEC4"
    },
    {
      "bufferView": 3,
      "byteOffset": 1388,
      "componentType": 5126,
      "count": 125,
      "max": [
        4.166666507720947
      ],
      "min": [
        0.0416666679084301
      ],
      "type": "SCALAR"
    },
    {
      "bufferView": 4,
      "byteOffset": 1068,
      "componentType": 5126,
      "count": 125,
      "max": [
        0.0,
        36.957462310791016,
        0.0
      ],
      "min": [
        0.0,
        0.0,
        0.0
      ],
      "type": "VEC3"
    }
  ],
  "animations": [
    {
      "channels": [
        {
          "sampler": 0,
          "target": {
            "node": 7,
            "path": "rotation"
          }
        },
        {
          "sampler": 1,
          "target": {
            "node": 9,
            "path": "translation"
          }
        },
        {
          "sampler": 2,
          "target": {
            "node": 9,
            "path": "rotation"
          }
        },
        {
          "sampler": 3,
          "target": {
            "node": 4,
            "path": "translation"
          }
        }
      ],
      "name": "Take 001",
      "samplers": [
        {
          "input": 12,
          "interpolation": "LINEAR",
          "output": 13
        },
        {
          "input": 14,
          "interpolation": "LINEAR",
          "output": 15
        },
        {
          "input": 16,
          "interpolation": "LINEAR",
          "output": 17
        },
        {
          "input": 18,
          "interpolation": "LINEAR",
          "output": 19
        }
      ]
    }
  ],
  "asset": {
    "extras": {
      "author": "Peter_Sawyer (https://sketchfab.com/Peter_Sawyer)",
      "license": "CC-BY-4.0 (http://creativecommons.org/licenses/by/4.0/)",
      "source": "https://sketchfab.com/3d-models/11-butterfly-4a711a40eb02484e8714f839c89b3778",
      "title": "11_Butterfly"
    },
    "generator": "Sketchfab-13.17.0",
    "version": "2.0"
  },
  "bufferViews": [
    {
      "buffer": 0,
      "byteLength": 32544,
      "name": "floatBufferViews",
      "target": 34963
    },
    {
      "buffer": 0,
      "byteLength": 17520,
      "byteOffset": 32544,
      "byteStride": 8,
      "name": "floatBufferViews",
      "target": 34962
    },
    {
      "buffer": 0,
      "byteLength": 52560,
      "byteOffset": 50064,
      "byteStride": 12,
      "name": "floatBufferViews",
      "target": 34962
    },
    {
      "buffer": 0,
      "byteLength": 1888,
      "byteOffset": 102624,
      "name": "floatBufferViews"
    },
    {
      "buffer": 0,
      "byteLength": 2568,
      "byteOffset": 104512,
      "byteStride": 12,
      "name": "floatBufferViews"
    },
    {
      "buffer": 0,
      "byteLength": 4128,
      "byteOffset": 107080,
      "byteStride": 16,
      "name": "floatBufferViews"
    }
  ],
  "buffers": [
    {
      "byteLength": 111208,
      "uri": "butterfly.bin"
    }
  ],
  "images": [
    {
      "uri": "textures/lambert1_baseColor.jpeg"
    }
  ],
  "materials": [
    {
      "doubleSided": true,
      "name": "lambert1",
      "pbrMetallicRoughness": {
        "baseColorTexture": {
          "index": 0
        },
        "metallicFactor": 0.0
      }
    }
  ],
  "meshes": [
    {
      "name": "Body_lambert1_0",
      "primitives": [
        {
          "attributes": {
            "NORMAL": 1,
            "POSITION": 0,
            "TEXCOORD_0": 2
          },
          "indices": 3,
          "material": 0,
          "mode": 4
        }
      ]
    },
    {
      "name": "pPlane3_lambert1_0",
      "primitives": [
        {
          "attributes": {
            "NORMAL": 5,
            "POSITION": 4,
            "TEXCOORD_0": 6
          },
          "indices": 7,
          "material": 0,
          "mode": 4
        }
      ]
    },
    {
      "name": "pPlane2_lambert1_0",
      "primitives": [
        {
          "attributes": {
            "NORMAL": 9,
            "POSITION": 8,
            "TEXCOORD_0": 10
          },
          "indices": 11,
          "material": 0,
          "mode": 4
        }
      ]
    }
  ],
  "nodes": [
    {
      "children": [
        1
      ],
      "matrix": [
        1.0,
        0.0,
        0.0,
        0.0,
        0.0,
        2.220446049250313e-16,
        -1.0,
        0.0,
        0.0,
        1.0,
        2.220446049250313e-16,
        0.0,
        0.0,
        0.0,
        0.0,
        1.0
      ],
      "name": "Sketchfab_model"
    },
    {
      "children": [
        2
      ],
      "matrix": [
        0.009999999776482582,
        0.0,
        0.0,
        0.0,
        0.0,
        0.0,
        0.009999999776482582,
        0.0,
        0.0,
        -0.009999999776482582,
        0.0,
        0.0,
        0.0,
        0.0,
        0.0,
        1.0
      ],
      "name": "5813c1a490eb42b58bea6a67b2f0f33f.fbx"
    },
    {
      "children": [
        3
      ],
      "name": "Object_2"
    },
    {
      "children": [
        4
      ],
      "name": "RootNode"
    },
    {
      "children": [
        5,
        7,
        9
      ],
      "name": "Butterfly",
      "rotation": [
        0.0,
        0.0,
        0.3990590274333954,
        0.9169252514839172
      ]
    },
    {
      "children": [
        6
      ],
      "name": "Body",
      "rotation": [
        0.0,
        -0.0,
        -0.025367412716150284,
        0.9996781945228577
      ],
      "translation": [
        0.8176503777503967,
        4.008573055267334,
        0.0
      ]
    },
    {
      "mesh": 0,
      "name": "Body_lambert1_0"
    },
    {
      "children": [
        8
      ],
      "name": "pPlane3",
      "rotation": [
        0.7608337998390198,
        -2.7485120642548576e-17,
        -2.3443200186620487e-17,
        0.6489467620849609
      ],
      "scale": [
        49.17251205444336,
        49.17251205444336,
        49.17251205444336
      ],
      "translation": [
        12.982872009277344,
        3.8042285442352295,
        -3.9523939676655573e-13
      ]
    },
    {
      "mesh": 1,
      "name": "pPlane3_lambert1_0"
    },
    {
      "children": [
        10,
        14
      ],
      "name": "pPlane1",
      "rotation": [
        0.7608337998390198,
        -2.7485120642548576e-17,
        -2.3443200186620487e-17,
        0.6489467620849609
      ],
      "scale": [
        49.17251205444336,
        49.17251205444336,
        49.17251205444336
      ],
      "translation": [
        0.0,
        3.8069825172424316,
        0.0
      ]
    },
    {
      "children": [
        11,
        13
      ],
      "name": "pPlane2",
      "rotation": [
        -1.3877787807814457e-17,
        -5.621451283227902e-17,
        9.474515155653803e-18,
        1.0
      ],
      "translation": [
        9.796793200905741e-19,
        -2.237793284010081e-16,
        -0.5283808708190918
      ]
    },
    {
      "children": [
        12
      ],
      "name": "pPlane2",
      "rotation": [
        -1.6070083972961272e-35,
        -1.6021764682116162e-18,
        -1.0030158842885274e-17,
        1.0
      ]
    },
    {
      "mesh": 2,
      "name": "pPlane2_lambert1_0"
    },
    {
      "name": "transform15",
      "rotation": [
        -1.6070083972961272e-35,
        -1.6021764682116162e-18,
        -1.0030158842885274e-17,
        1.0
      ]
    },
    {
      "name": "transform14",
      "rotation": [
        -1.3877787807814457e-17,
        -5.621451283227902e-17,
        9.474515155653803e-18,
        1.0
      ],
      "translation": [
        9.796793200905741e-19,
        -2.237793284010081e-16,
        -0.5283808708190918
      ]
    }
  ],
  "samplers": [
    {
      "magFilter": 9729,
      "minFilter": 9987,
      "wrapS": 10497,
      "wrapT": 10497
    }
  ],
  "scene": 0,
  "scenes": [
    {
      "name": "Sketchfab_Scene",
      "nodes": [
        0
      ]
    }
  ],
  "textures": [
    {
      "sampler": 0,
      "source": 0
    }
  ]
}
